<svg xmlns="http://www.w3.org/2000/svg" width="32.379" height="24.25" viewBox="0 0 32.379 24.25">
  <g id="email_2099199_1_" data-name="email_2099199 (1)" transform="translate(0 -64.266)">
    <path id="Path_4469" data-name="Path 4469" d="M18.9,180.4a4.87,4.87,0,0,1-5.412,0L.216,171.555c-.074-.049-.145-.1-.216-.153V185.9a2.98,2.98,0,0,0,2.981,2.981H29.4a2.98,2.98,0,0,0,2.981-2.981V171.4c-.07.053-.142.1-.216.153Z" transform="translate(0 -100.361)" fill="#f2f2f2"/>
    <path id="Path_4470" data-name="Path 4470" d="M1.268,69.616l13.268,8.846a2.973,2.973,0,0,0,3.307,0l13.268-8.846a2.841,2.841,0,0,0,1.268-2.37,2.983,2.983,0,0,0-2.98-2.98H2.98A2.983,2.983,0,0,0,0,67.247a2.84,2.84,0,0,0,1.268,2.368Z" fill="#f2f2f2"/>
  </g>
</svg>
