<svg id="locator_2901609" xmlns="http://www.w3.org/2000/svg" width="20" height="20" viewBox="0 0 20 20">
  <path id="Path_4479" data-name="Path 4479" d="M10,0A6.018,6.018,0,0,0,4,6c0,3.3,6,11,6,11s6-7.7,6-11A6.018,6.018,0,0,0,10,0Zm0,8a2,2,0,1,1,2-2A2.006,2.006,0,0,1,10,8Z" fill="#fff"/>
  <g id="Group_12978" data-name="Group 12978">
    <path id="Path_4480" data-name="Path 4480" d="M16.3,11.1a16.179,16.179,0,0,1-1,1.8C17,13.5,18,14.3,18,15c0,1.2-3.2,3-8,3s-8-1.8-8-3c0-.7,1-1.5,2.7-2.2a16.179,16.179,0,0,1-1-1.8C1.4,12,0,13.4,0,15c0,2.8,4.2,5,9.8,5,5,0,10.2-1.7,10.2-5C20,13.4,18.6,12,16.3,11.1Z" fill="#fff"/>
  </g>
</svg>
